<?xml version="1.0" encoding="UTF-8"?>
<!DOCTYPE svg PUBLIC "-//W3C//DTD SVG 1.1//EN" "http://www.w3.org/Graphics/SVG/1.1/DTD/svg11.dtd">
<!-- Creator: CorelDRAW -->
<svg xmlns="http://www.w3.org/2000/svg" xml:space="preserve" width="1500px" height="1500px" style="shape-rendering:geometricPrecision; text-rendering:geometricPrecision; image-rendering:optimizeQuality; fill-rule:evenodd; clip-rule:evenodd"
viewBox="0 0 287.602 287.63"
 xmlns:xlink="http://www.w3.org/1999/xlink">
 <defs>
  <style type="text/css">
   <![CDATA[
    .fil2 {fill:#1C72B8}
    .fil1 {fill:#334755}
    .fil0 {fill:#DBDBDB}
    .fil3 {fill:white}
   ]]>
  </style>
 </defs>
 <g id="Слой_x0020_1">
  <metadata id="CorelCorpID_0Corel-Layer"/>
  <g id="_96204752">
   <path id="_96205880" class="fil0" d="M245.444 42.1422c-56.1897,-56.1899 -147.23,-56.1897 -203.362,0.000211809 -54.0394,54.0387 -56.0704,140.476 -6.03593,196.968l1.49432 1.1963c-5.44117,11.7164 -14.7665,26.1818 -29.5913,33.4731 -4.90085,2.39345 -3.76512,9.68477 1.61399,10.5223 16.1998,2.50994 39.454,-0.300346 61.1523,-16.6779l0.300346 0.239133c55.1132,32.3986 127.205,24.9878 174.548,-22.3582 56.0704,-56.1286 56.0704,-147.231 -0.119461,-203.362z"/>
   <polygon id="_96201776" class="fil1" points="143.803,81.8355 214.186,125.188 73.4153,125.188 "/>
   <path id="_96205808" class="fil2" d="M214.186 193.809l-0.00783695 0c0,6.95688 -5.6371,12.5895 -12.5906,12.5895l-115.582 0c-6.95307,0 -12.5904,-5.63646 -12.5904,-12.5895l0 -66.4675c0,-0.734343 0.0773104,-1.44899 0.198677,-2.15283l66.4256 41.4217c0.0802758,0.0497752 0.168177,0.0843001 0.248664,0.130263 0.0881127,0.048928 0.18025,0.0951024 0.268151,0.141065 0.470217,0.240827 0.95166,0.436539 1.44496,0.56193 0.0540114,0.0156739 0.103787,0.023299 0.152926,0.0353722 0.543503,0.125179 1.09442,0.206514 1.64046,0.206514l0.0120731 0c0.546045,0 1.09717,-0.0775222 1.64068,-0.206514 0.0491398,-0.0120731 0.0987032,-0.0196983 0.152503,-0.0353722 0.493728,-0.125391 0.975171,-0.321103 1.44518,-0.56193 0.0881127,-0.0459626 0.18025,-0.0921371 0.268363,-0.141065 0.080064,-0.0459626 0.168388,-0.080064 0.248664,-0.130051l66.4245 -41.4219c0.122426,0.703843 0.199736,1.41573 0.199736,2.15283l0 66.4675z"/>
   <path id="_96202232" class="fil3" d="M73.6139 125.188l140.373 0 -66.4245 41.4219c-0.0802758,0.049987 -0.1686,0.0840883 -0.248664,0.130051 -0.0881127,0.048928 -0.18025,0.0951024 -0.268363,0.141065 -0.470005,0.240827 -0.951448,0.436539 -1.44518,0.56193 -0.0537996,0.0156739 -0.103363,0.023299 -0.152503,0.0353722 -0.543503,0.128992 -1.09463,0.206514 -1.64068,0.206514l-0.0120731 0c-0.546045,0 -1.09696,-0.0813348 -1.64046,-0.206514 -0.0491398,-0.0120731 -0.098915,-0.0196983 -0.152926,-0.0353722 -0.493304,-0.125391 -0.974747,-0.321103 -1.44496,-0.56193 -0.0879009,-0.0459626 -0.180038,-0.0921371 -0.268151,-0.141065 -0.0804876,-0.0459626 -0.168388,-0.0804876 -0.248664,-0.130263l-66.4256 -41.4217z"/>
  </g>
 </g>
</svg>
