<?xml version="1.0" encoding="UTF-8"?>
<!DOCTYPE svg PUBLIC "-//W3C//DTD SVG 1.1//EN" "http://www.w3.org/Graphics/SVG/1.1/DTD/svg11.dtd">
<!-- Creator: CorelDRAW -->
<svg xmlns="http://www.w3.org/2000/svg" xml:space="preserve" width="1500px" height="1500px" style="shape-rendering:geometricPrecision; text-rendering:geometricPrecision; image-rendering:optimizeQuality; fill-rule:evenodd; clip-rule:evenodd"
viewBox="0 0 585.314 585.372"
 xmlns:xlink="http://www.w3.org/1999/xlink">
 <defs>
  <style type="text/css">
   <![CDATA[
    .fil3 {fill:#1C72B8}
    .fil1 {fill:#334755}
    .fil0 {fill:#DBDBDB}
    .fil2 {fill:white}
   ]]>
  </style>
 </defs>
 <g id="Слой_x0020_1">
  <metadata id="CorelCorpID_0Corel-Layer"/>
  <g id="_96205352">
   <path id="_96204056" class="fil0" d="M499.517 85.766c-114.355,-114.355 -299.637,-114.355 -413.873,0.000431065 -109.979,109.977 -114.112,285.891 -12.2841,400.86l3.04117 2.43466c-11.0736,23.8448 -30.0521,53.284 -60.2228,68.123 -9.97399,4.87104 -7.66262,19.71 3.28472,21.4145 32.9692,5.10812 80.2949,-0.61125 124.455,-33.9421l0.61125 0.486673c112.164,65.9362 258.882,50.8541 355.232,-45.5024 114.112,-114.231 114.112,-299.637 -0.243121,-413.874z"/>
   <path id="_96208952" class="fil1" d="M425.55 298.178c-5.83964,-34.0623 -21.8951,-64.9628 -46.3511,-89.5374 -25.7863,-25.7928 -58.5119,-42.0931 -94.6464,-47.2012l3.6481 -26.0363c41.7293,5.83835 79.6871,24.6996 109.49,54.6259 28.3473,28.3473 46.9637,64.2326 53.7762,103.652l-25.9169 4.49687z"/>
   <path id="_96206288" class="fil2" d="M281.149 228.837l3.6481 -26.0359c25.1794,3.52784 48.0551,14.964 66.0603,32.9687 17.1491,17.1551 28.3412,38.6885 32.3558,62.4083l-25.9109 4.50204c-3.16014,-18.3681 -11.8026,-35.0348 -25.0613,-48.2935 -13.9889,-13.9954 -31.632,-22.8762 -51.092,-25.5497z"/>
   <path id="_96206072" class="fil3" d="M389.053 417.891c-6.44486,6.57073 -13.2591,12.6535 -19.3419,19.4665 -8.87908,9.97399 -20.0717,13.1341 -32.7239,12.4086 -18.4918,-0.972914 -35.6469,-7.18068 -52.0714,-15.2067 -36.6155,-17.7664 -67.8798,-42.4612 -94.0403,-73.6052 -19.3419,-22.9947 -35.2788,-48.0513 -45.8645,-76.3964 -5.10942,-13.7518 -8.75623,-27.7425 -7.66262,-42.5798 0.729793,-9.12436 4.13909,-16.912 10.8288,-23.3581 7.30095,-6.93756 14.1135,-14.1135 21.2899,-21.1713 9.36748,-9.2429 21.0463,-9.12393 30.4138,0 5.83964,5.7211 11.4344,11.4357 17.1551,17.1568 5.59609,5.59436 11.1909,11.0663 16.6624,16.6624 9.73561,9.85415 9.73561,21.2899 0,31.144 -6.93282,7.0574 -13.8644,14.1135 -21.0463,20.9278 -1.82341,1.82341 -2.06696,3.28472 -1.09361,5.59609 4.62317,11.1909 11.4357,21.1692 18.9798,30.4138 15.2071,18.735 32.4808,35.4034 53.1654,48.2987 4.37833,2.79804 9.2429,4.74042 13.8644,7.29492 2.31137,1.34277 4.0158,0.856095 5.83878,-1.09318 6.93756,-7.17465 14.1139,-14.2325 21.1713,-21.2899 9.36791,-9.2429 21.0468,-9.2429 30.2892,0 11.4405,11.3168 22.7516,22.6266 34.0671,34.0623 9.73087,9.97873 9.73087,21.6576 0.118543,31.2686z"/>
  </g>
 </g>
</svg>
