<?xml version="1.0" encoding="iso-8859-1"?>
<!-- Generator: Adobe Illustrator 18.1.1, SVG Export Plug-In . SVG Version: 6.00 Build 0)  -->
<svg version="1.1" id="Capa_1" xmlns="http://www.w3.org/2000/svg" xmlns:xlink="http://www.w3.org/1999/xlink" x="0px" y="0px"
	 viewBox="0 0 612 612" style="enable-background:new 0 0 612 612;" xml:space="preserve">
<g>
	<g style="fill:#fff;">
		<path d="M244.715,447.611c38.497,23.539,82.153,35.325,125.817,35.325c61.797,0,123.594-23.575,170.744-70.724
			c94.299-94.299,94.299-247.188,0-341.487C494.126,23.575,432.329,0,370.532,0c-61.797,0-123.594,23.575-170.744,70.724
			c-80.464,80.464-92.253,203.58-35.4,296.561L47.068,484.606l80.326,80.326L244.715,447.611z M204.315,173.949
			c9.005-22.207,22.262-42.158,39.401-59.297s37.09-30.396,59.297-39.401c21.481-8.711,44.198-13.128,67.519-13.128
			s46.038,4.417,67.519,13.128c22.207,9.005,42.157,22.262,59.297,39.401c17.139,17.139,30.396,37.09,39.401,59.297
			c8.711,21.481,13.128,44.198,13.128,67.519s-4.417,46.038-13.128,67.519c-9.005,22.207-22.262,42.158-39.401,59.297
			c-17.139,17.139-37.09,30.396-59.297,39.401c-21.481,8.711-44.198,13.128-67.519,13.128s-46.038-4.417-67.519-13.128
			c-4.305-1.746-8.522-3.656-12.653-5.718c-17.18-8.577-32.826-19.866-46.643-33.683c-13.817-13.817-25.106-29.463-33.683-46.644
			c-2.062-4.132-3.972-8.348-5.718-12.653c-8.711-21.481-13.128-44.198-13.128-67.519S195.604,195.43,204.315,173.949z"/>
		<path d="M51.286,604.415c10.114,10.114,26.512,10.114,36.625,0l17.76-17.76l-80.326-80.327l-17.76,17.76
			c-10.114,10.114-10.114,26.512,0,36.625L51.286,604.415z"/>
	</g>
</g>
<g>
</g>
<g>
</g>
<g>
</g>
<g>
</g>
<g>
</g>
<g>
</g>
<g>
</g>
<g>
</g>
<g>
</g>
<g>
</g>
<g>
</g>
<g>
</g>
<g>
</g>
<g>
</g>
<g>
</g>
</svg>
